# xmcd
#
# Track frame offsets: 
#        150
#        16131
#        31311
#        47604
#        62703
#        81738
#        98101
#        115516
#        133510
#        148837
#        162815
#        178475
#        195563
#        207518
#        224030
#        237611
#
# Disc length: 3391 seconds
#
# Revision: 0
# Processed by: cddbd v1.5.2PL0 Copyright (c) Steve Scherf et al.
# Submitted via: ExactAudioCopyFreeDBPlugin 1.0
#
DISCID=f10d3d10
DTITLE=Shania Twain - Now (DeLuxe Edt.)
DYEAR=2017
DGENRE=Country
TTITLE0=Swingin' With My Eyes Closed
TTITLE1=Home Now
TTITLE2=Light Of My Life
TTITLE3=Poor Me
TTITLE4=Who's Gonna Be Your Girl
TTITLE5=More Fun
TTITLE6=I'm Alright
TTITLE7=Let's Kiss And Make Up
TTITLE8=Where Do You Think You're Going
TTITLE9=Roll Me On The River
TTITLE10=We Got Something They Don't
TTITLE11=Because Of You
TTITLE12=You Can't Buy Love
TTITLE13=Life's About To Get Good
TTITLE14=Soldier
TTITLE15=All In All
EXTD=
EXTT0=
EXTT1=
EXTT2=
EXTT3=
EXTT4=
EXTT5=
EXTT6=
EXTT7=
EXTT8=
EXTT9=
EXTT10=
EXTT11=
EXTT12=
EXTT13=
EXTT14=
EXTT15=
PLAYORDER=
